<svg width="8" height="8" viewBox="0 0 8 8" fill="none" xmlns="http://www.w3.org/2000/svg">
<path d="M4 0L4.87998 0.715852L6 0.535898L6.40416 1.59584L7.4641 2L7.28415 3.12002L8 4L7.28415 4.87998L7.4641 6L6.40416 6.40416L6 7.4641L4.87998 7.28415L4 8L3.12002 7.28415L2 7.4641L1.59584 6.40416L0.535898 6L0.715852 4.87998L0 4L0.715852 3.12002L0.535898 2L1.59584 1.59584L2 0.535898L3.12002 0.715852L4 0Z" fill="#1062D8"/>
<path d="M5.67749 2.80247C5.65425 2.77903 5.6266 2.76043 5.59613 2.74774C5.56567 2.73505 5.53299 2.72852 5.49999 2.72852C5.46698 2.72852 5.43431 2.73505 5.40384 2.74774C5.37338 2.76043 5.34573 2.77903 5.32249 2.80247L3.45999 4.66747L2.67749 3.88247C2.65336 3.85916 2.62487 3.84083 2.59366 3.82853C2.56244 3.81623 2.52911 3.81019 2.49557 3.81077C2.46202 3.81135 2.42892 3.81854 2.39815 3.83191C2.36738 3.84528 2.33955 3.86458 2.31624 3.88872C2.29293 3.91285 2.2746 3.94133 2.2623 3.97254C2.25 4.00376 2.24396 4.03709 2.24455 4.07063C2.24513 4.10418 2.25231 4.13728 2.26568 4.16805C2.27905 4.19882 2.29836 4.22666 2.32249 4.24997L3.28249 5.20997C3.30573 5.2334 3.33338 5.252 3.36384 5.26469C3.39431 5.27738 3.42698 5.28391 3.45999 5.28391C3.49299 5.28391 3.52567 5.27738 3.55613 5.26469C3.5866 5.252 3.61425 5.2334 3.63749 5.20997L5.67749 3.16997C5.70286 3.14655 5.72311 3.11814 5.73697 3.08652C5.75082 3.05489 5.75797 3.02074 5.75797 2.98622C5.75797 2.95169 5.75082 2.91754 5.73697 2.88591C5.72311 2.85429 5.70286 2.82588 5.67749 2.80247Z" fill="white"/>
</svg>
